<svg xmlns="http://www.w3.org/2000/svg" version="1.1" xmlns:xlink="http://www.w3.org/1999/xlink" xmlns:svgjs="http://svgjs.dev/svgjs" width="800" height="800"><svg xmlns="http://www.w3.org/2000/svg" xml:space="preserve" width="800" height="800" viewBox="0 0 512 512"><circle cx="256" cy="256" r="256" style="fill:#273b7a"></circle><path d="M297.215 508.681a255.084 255.084 0 0 0 17.053-3.348L161.016 350.956l-12.472 9.052 148.671 148.673zM504.151 319.117 314.384 129.843l-7.423 9.323-45.372-44.986-1.355 89.669-55.479-55.889-10.599 11.295 26.71 27.153-20.694 21.771-41.322-39.769-10.307 11.624 42.948 42.948-23.773 16.574v6.815l-28.651-29.951-9.945 11.69 47.949 49.45-83.149 3.389 21.768 23.119 22.042 22.042-8.618 8.604 189.08 189.661c91.108-22.74 162.888-94.282 185.957-185.258zM351.066 160.927l154.296 153.221a254.105 254.105 0 0 0 3.318-16.932L362.032 149.963l-10.966 10.964z" style="fill:#121149"></path><path d="M412.444 248.242h-27.246l10.393-10.393a7.753 7.753 0 0 0 0-10.969 7.753 7.753 0 0 0-10.969 0l-21.364 21.363h-17.134l9.823-29.47a7.756 7.756 0 0 0-4.908-9.811l-27.772-9.257 19.147-19.147a7.753 7.753 0 0 0 0-10.969 7.753 7.753 0 0 0-10.969 0l-17.203 17.203-13.893-27.784c-1.915-3.832-6.572-5.382-10.409-3.47l-26.183 13.09v-18.02l21.863-21.863a7.753 7.753 0 0 0 0-10.969 7.753 7.753 0 0 0-10.969 0l-10.893 10.892v-29.11a7.759 7.759 0 0 0-15.516 0v29.11l-10.892-10.892a7.753 7.753 0 0 0-10.969 0 7.753 7.753 0 0 0 0 10.969l21.861 21.863v18.02l-26.183-13.091a7.763 7.763 0 0 0-10.409 3.47l-13.603 27.207-16.377-16.377a7.753 7.753 0 0 0-10.969 0 7.753 7.753 0 0 0 0 10.969l18.682 18.682-28.422 9.475a7.757 7.757 0 0 0-4.906 9.814l9.473 28.417h-16.506l-22.361-22.361a7.753 7.753 0 0 0-10.969 0 7.753 7.753 0 0 0 0 10.969l11.39 11.39H98.837a7.759 7.759 0 0 0 0 15.516h27.246l-10.393 10.393a7.753 7.753 0 0 0 0 10.969c1.514 1.515 3.5 2.272 5.485 2.272s3.972-.757 5.485-2.272l21.364-21.364h21.13l-13.619 27.236a7.758 7.758 0 0 0 3.469 10.41l27.786 13.893-19.111 19.109a7.753 7.753 0 0 0 0 10.969c1.514 1.515 3.5 2.272 5.485 2.272s3.972-.757 5.485-2.272l21.056-21.056 9.257 27.772a7.759 7.759 0 0 0 9.813 4.908l28.751-9.583v13.979l-21.863 21.863a7.753 7.753 0 0 0 0 10.969 7.753 7.753 0 0 0 10.969 0l10.892-10.892v29.11a7.759 7.759 0 0 0 15.516 0v-29.11l10.892 10.892a7.731 7.731 0 0 0 5.486 2.272 7.727 7.727 0 0 0 5.485-2.272 7.753 7.753 0 0 0 0-10.969l-21.863-21.863v-14.458l30.189 10.062a7.759 7.759 0 0 0 9.813-4.908l9.475-28.422 20.296 20.296a7.73 7.73 0 0 0 5.485 2.272 7.731 7.731 0 0 0 5.486-2.272 7.753 7.753 0 0 0 0-10.969l-17.989-17.989 27.207-13.603a7.76 7.76 0 0 0 3.47-10.409l-13.096-26.183h18.887l22.361 22.361c1.514 1.515 3.5 2.272 5.485 2.272s3.972-.757 5.485-2.272a7.753 7.753 0 0 0 0-10.969l-11.392-11.392h28.243a7.759 7.759 0 0 0-.001-15.518zm-73.671-27.017-9.006 27.017h-48.469a26.301 26.301 0 0 0-1.932-4.637l31.637-31.637 27.77 9.257zM245.051 256c0-6.037 4.911-10.949 10.949-10.949 6.037 0 10.949 4.911 10.949 10.949 0 6.037-4.911 10.949-10.949 10.949-6.037 0-10.949-4.912-10.949-10.949zm44.889-83.12 12.736 25.472-34.282 34.282a26.226 26.226 0 0 0-4.637-1.932v-44.728l26.183-13.094zm-67.882 0 26.184 13.093v44.728c-1.408.433-2.755 1-4.053 1.651l-34.578-34.578 12.447-24.894zm-48.833 48.345 28.424-9.475 31.298 31.298a26.459 26.459 0 0 0-1.87 4.141h-49.195l-8.657-25.964zm-.347 68.715 13.619-27.236h43.934a26.277 26.277 0 0 0 2.205 5.689l-34.282 34.282-25.476-12.735zm48.347 48.833-9.257-27.77 31.637-31.637a26.275 26.275 0 0 0 3.918 1.681v48.962l-26.298 8.764zm69.55 0-27.736-9.245v-48.045a26.17 26.17 0 0 0 5.911-2.431l31.299 31.299-9.474 28.422zm23.45-36.384-34.578-34.578a26.038 26.038 0 0 0 1.651-4.053h44.728l13.093 26.183-24.894 12.448z" style="fill:#fff"></path><path d="M412.444 248.242h-27.246l10.393-10.393a7.753 7.753 0 0 0 0-10.969 7.753 7.753 0 0 0-10.969 0l-21.364 21.363h-17.134l9.823-29.47a7.756 7.756 0 0 0-4.908-9.811l-27.772-9.257 19.147-19.147a7.753 7.753 0 0 0 0-10.969 7.753 7.753 0 0 0-10.969 0l-17.203 17.203-13.893-27.784c-1.915-3.832-6.572-5.382-10.409-3.47l-26.183 13.09v-18.02l21.863-21.863a7.753 7.753 0 0 0 0-10.969 7.753 7.753 0 0 0-10.969 0l-10.893 10.892v-29.11A7.759 7.759 0 0 0 256 91.8c-.197 0-.381.043-.574.059v153.226c.191-.01.381-.029.574-.029 6.037 0 10.949 4.911 10.949 10.949 0 6.037-4.911 10.949-10.949 10.949-.193 0-.383-.019-.574-.029v152.216c4.217-.079 7.613-3.508 7.613-7.742v-29.11l10.892 10.892a7.731 7.731 0 0 0 5.486 2.272 7.727 7.727 0 0 0 5.485-2.272 7.753 7.753 0 0 0 0-10.969l-21.863-21.863v-14.458l30.189 10.062a7.759 7.759 0 0 0 9.813-4.908l9.475-28.422 20.296 20.296a7.73 7.73 0 0 0 5.485 2.272 7.727 7.727 0 0 0 5.485-2.272 7.753 7.753 0 0 0 0-10.969l-17.989-17.989L353 300.358a7.76 7.76 0 0 0 3.47-10.409l-13.095-26.186h18.887l22.361 22.361c1.514 1.515 3.5 2.272 5.485 2.272s3.972-.757 5.485-2.272a7.753 7.753 0 0 0 0-10.969l-11.392-11.392h28.243a7.759 7.759 0 0 0 7.758-7.758 7.76 7.76 0 0 0-7.758-7.763zm-73.671-27.017-9.006 27.017h-48.469a26.301 26.301 0 0 0-1.932-4.637l31.637-31.637 27.77 9.257zm-75.015 9.477v-44.728l26.183-13.093 12.736 25.472-34.282 34.282a26.412 26.412 0 0 0-4.637-1.933zm27.017 108.071-27.736-9.245v-48.045a26.17 26.17 0 0 0 5.911-2.431l31.299 31.299-9.474 28.422zm23.45-36.384-34.578-34.578a26.038 26.038 0 0 0 1.651-4.053h44.728l13.093 26.183-24.894 12.448zM356.55 163.202a7.75 7.75 0 0 0 5.482-2.276 7.811 7.811 0 0 0 2.276-5.482 7.807 7.807 0 0 0-2.276-5.482 7.803 7.803 0 0 0-5.482-2.276 7.804 7.804 0 0 0-5.484 2.276 7.81 7.81 0 0 0-2.274 5.482c0 2.05.826 4.051 2.274 5.482a7.819 7.819 0 0 0 5.484 2.276z" style="fill:#d0d1d3"></path><path d="M308.9 143.084a7.812 7.812 0 0 0 5.484-2.276 7.81 7.81 0 0 0 2.274-5.482 7.788 7.788 0 0 0-2.274-5.484 7.75 7.75 0 0 0-5.484-2.274 7.81 7.81 0 0 0-5.482 2.274 7.786 7.786 0 0 0-2.276 5.484c0 2.034.827 4.034 2.276 5.482a7.809 7.809 0 0 0 5.482 2.276zM376.668 209.472a7.75 7.75 0 0 0 5.482-2.276 7.748 7.748 0 0 0 2.276-5.482 7.807 7.807 0 0 0-2.276-5.482 7.752 7.752 0 0 0-5.482-2.276 7.812 7.812 0 0 0-5.484 2.276 7.81 7.81 0 0 0-2.274 5.482 7.75 7.75 0 0 0 2.274 5.482 7.82 7.82 0 0 0 5.484 2.276zM357.912 349.298a7.864 7.864 0 0 0-5.484 2.258 7.82 7.82 0 0 0-2.274 5.499 7.81 7.81 0 0 0 2.274 5.482 7.813 7.813 0 0 0 5.484 2.276c2.05 0 4.051-.827 5.498-2.276a7.87 7.87 0 0 0 2.26-5.482 7.867 7.867 0 0 0-2.26-5.499 7.871 7.871 0 0 0-5.498-2.258zM378.03 301.647a7.808 7.808 0 0 0-5.484 2.276 7.867 7.867 0 0 0-2.258 5.482c0 2.036.826 4.034 2.258 5.484a7.81 7.81 0 0 0 5.484 2.274c2.05 0 4.051-.826 5.498-2.274a7.874 7.874 0 0 0 2.26-5.484c0-2.05-.827-4.051-2.26-5.482a7.827 7.827 0 0 0-5.498-2.276zM311.641 369.416a7.81 7.81 0 0 0-5.482 2.274 7.753 7.753 0 0 0-2.276 5.484 7.75 7.75 0 0 0 2.276 5.482 7.811 7.811 0 0 0 5.482 2.276 7.752 7.752 0 0 0 5.484-2.276 7.81 7.81 0 0 0 2.274-5.482 7.814 7.814 0 0 0-2.274-5.484 7.755 7.755 0 0 0-5.484-2.274z" style="fill:#d0d1d3"></path><path d="M154.733 347.746c-2.034 0-4.034.827-5.499 2.258a7.88 7.88 0 0 0-2.258 5.499c0 2.034.826 4.034 2.258 5.482a7.816 7.816 0 0 0 5.499 2.276 7.803 7.803 0 0 0 5.482-2.276 7.811 7.811 0 0 0 2.276-5.482 7.817 7.817 0 0 0-2.276-5.499 7.875 7.875 0 0 0-5.482-2.258zM202.364 367.864a7.807 7.807 0 0 0-5.482 2.276 7.809 7.809 0 0 0-2.26 5.482 7.83 7.83 0 0 0 2.26 5.482 7.803 7.803 0 0 0 5.482 2.276 7.813 7.813 0 0 0 5.499-2.276c1.431-1.448 2.274-3.429 2.274-5.482a7.852 7.852 0 0 0-2.274-5.482 7.821 7.821 0 0 0-5.499-2.276zM134.615 301.477a7.869 7.869 0 0 0-5.499 2.258 7.877 7.877 0 0 0-2.258 5.499c0 2.034.826 4.034 2.258 5.482a7.879 7.879 0 0 0 5.499 2.26 7.86 7.86 0 0 0 5.482-2.26 7.811 7.811 0 0 0 2.276-5.482 7.813 7.813 0 0 0-2.276-5.499 7.858 7.858 0 0 0-5.482-2.258zM153.371 161.651a7.81 7.81 0 0 0 5.482-2.274 7.825 7.825 0 0 0 2.276-5.484c0-2.034-.845-4.034-2.276-5.482a7.811 7.811 0 0 0-5.482-2.276 7.817 7.817 0 0 0-5.499 2.276 7.867 7.867 0 0 0-2.258 5.482c0 2.051.826 4.053 2.258 5.484a7.824 7.824 0 0 0 5.499 2.274zM133.236 209.299c2.05 0 4.051-.827 5.498-2.276a7.87 7.87 0 0 0 2.26-5.482 7.862 7.862 0 0 0-2.26-5.484 7.849 7.849 0 0 0-5.498-2.274 7.81 7.81 0 0 0-5.484 2.274c-1.431 1.448-2.274 3.448-2.274 5.484 0 2.034.843 4.034 2.274 5.482a7.808 7.808 0 0 0 5.484 2.276zM199.64 141.533a7.803 7.803 0 0 0 5.482-2.276 7.803 7.803 0 0 0 2.276-5.482 7.803 7.803 0 0 0-2.276-5.482 7.811 7.811 0 0 0-5.482-2.276 7.75 7.75 0 0 0-5.482 2.276 7.811 7.811 0 0 0-2.276 5.482c0 2.034.827 4.034 2.276 5.482a7.752 7.752 0 0 0 5.482 2.276z" style="fill:#fff"></path></svg><style>@media (prefers-color-scheme: light) { :root { filter: none; } }
@media (prefers-color-scheme: dark) { :root { filter: none; } }
</style></svg>